PathFileType	4	(X/Y/Z)	./resultDataOpenSim/trcMotMarkerGrf/sub09/qtm-05-01.trc
DataRate	CameraRate	NumFrames	NumMarkers	Units	OrigDataRate	OrigDataStartFrame	OrigNumFrames
250.000000	250.000000	11	24	m	250.000000	131	521
Frame#	Time	L.Toe.Tip			R.Toe.Tip			L.Ankle.Lat			R.Ankle.Lat			L.Ankle.Med			R.Ankle.Med			L.Heel			R.Heel			L.Knee.Lat			R.Knee.Lat			L.Knee.Med			R.Knee.Med			L.Thigh.Upper			R.Thigh.Upper			L.ASIS			R.ASIS			V.Sacral			L.Acromium			R.Acromium			C7			L.Elbow			R.Elbow			L.Wrist.Lat			R.Wrist.Lat
		X1	Y1	Z1	X2	Y2	Z2	X3	Y3	Z3	X4	Y4	Z4	X5	Y5	Z5	X6	Y6	Z6	X7	Y7	Z7	X8	Y8	Z8	X9	Y9	Z9	X10	Y10	Z10	X11	Y11	Z11	X12	Y12	Z12	X13	Y13	Z13	X14	Y14	Z14	X15	Y15	Z15	X16	Y16	Z16	X17	Y17	Z17	X18	Y18	Z18	X19	Y19	Z19	X20	Y20	Z20	X21	Y21	Z21	X22	Y22	Z22	X23	Y23	Z23	X24	Y24	Z24

131	0.52	-0.2599364	0.081319153	0.0032164647	-0.6493718	0.039359856	0.096777527	-0.40933608	0.1045455	-0.036875791	-0.79420508	0.05569574	0.13349659	-0.38922024	0.1200066	0.05808386	-0.78326372	0.094123877	0.042630657	-0.47442242	0.057509257	0.0078959097	-0.86444073	0.0361066	0.084223782	-0.40268793	0.52336485	-0.064845141	-0.62341307	0.48202949	0.19486436	-0.40395374	0.51650889	0.060324843	-0.650012	0.47678528	0.068678258	-0.6062013	0.88941564	-0.10640483	-0.64825002	0.88904887	0.26708116	-0.5410096	0.97292714	-0.037738251	-0.54852629	0.9739362	0.1996921	-0.71346191	1.0304204	0.068544413	-0.54208264	1.4241671	-0.087983177	-0.56642479	1.4337072	0.24112742	-0.62382021	1.4794657	0.074974032	-0.69971135	1.0922794	-0.13292709	-0.6788472	1.0684261	0.3258786	-0.60108372	0.85265794	-0.17869	-0.41392935	0.97117715	0.28991442
132	0.524	-0.2430195	0.082307814	0.0059334472	-0.64933737	0.03940786	0.096958201	-0.39264291	0.10246013	-0.035760019	-0.79424408	0.055954627	0.13349199	-0.37362038	0.11876745	0.059274119	-0.78306537	0.094160242	0.042573579	-0.45716893	0.054289899	0.0087506117	-0.86440907	0.036282945	0.084099616	-0.39647502	0.52125298	-0.064373249	-0.62090831	0.48112472	0.19503709	-0.39887527	0.51467267	0.060453793	-0.64725614	0.47604339	0.068780728	-0.60007911	0.8878166	-0.10616832	-0.64290796	0.88792991	0.26758084	-0.53466864	0.97167195	-0.037525823	-0.54272923	0.97311708	0.19994737	-0.70769035	1.029037	0.067758076	-0.53629635	1.423072	-0.087888661	-0.56093994	1.4326805	0.2412117	-0.6181327	1.4783325	0.075020189	-0.69509383	1.0918174	-0.13324267	-0.67275015	1.0670242	0.32600886	-0.5974381	0.85183127	-0.17935487	-0.40680423	0.97265104	0.28968207
133	0.528	-0.22643585	0.083379521	0.0085999802	-0.64931904	0.039415746	0.097058032	-0.376257	0.10049799	-0.034654534	-0.79433217	0.056463866	0.13355396	-0.35824026	0.11771718	0.060512747	-0.78284514	0.094181415	0.042481665	-0.44017628	0.05122024	0.009877971	-0.86436364	0.036480579	0.083932314	-0.39040704	0.51899753	-0.063905027	-0.61850647	0.48021467	0.19517887	-0.39397082	0.51262531	0.060588809	-0.64431852	0.47523186	0.068948274	-0.59389445	0.88612285	-0.105891	-0.63746236	0.88694854	0.26790259	-0.52831668	0.97032365	-0.037308589	-0.53693588	0.97222702	0.20021402	-0.70202662	1.0274811	0.066660477	-0.53052768	1.4219092	-0.087800322	-0.55549117	1.4315709	0.2412957	-0.61243233	1.4771176	0.075061324	-0.69041645	1.0912685	-0.1335276	-0.66665555	1.0655404	0.32613274	-0.59364614	0.85094529	-0.18002289	-0.39973358	0.97399893	0.28945495
134	0.532	-0.2102106	0.084556728	0.011165513	-0.64929339	0.039359836	0.097046971	-0.360217	0.09865909	-0.033526152	-0.79432584	0.057033303	0.13368317	-0.34308207	0.11683068	0.061786603	-0.78260134	0.094189155	0.04235448	-0.42342044	0.048303322	0.011032386	-0.86430778	0.036688759	0.083731647	-0.38447374	0.51669393	-0.063505132	-0.61604373	0.47926873	0.19533271	-0.38901963	0.51036519	0.060794392	-0.64131481	0.47442546	0.069106805	-0.587612	0.88434552	-0.10559347	-0.63197532	0.88608188	0.2680612	-0.52192861	0.96888391	-0.037101176	-0.53114305	0.97126433	0.20048868	-0.69628706	1.0257104	0.065429725	-0.52479589	1.4206838	-0.087712715	-0.55004957	1.4303719	0.24138256	-0.60671856	1.4758367	0.075106018	-0.68557551	1.0906314	-0.13383231	-0.66056901	1.063976	0.32624023	-0.58969742	0.84999852	-0.18068506	-0.39271979	0.97522613	0.28923148
135	0.536	-0.19437175	0.085853569	0.013600407	-0.64923606	0.03925945	0.096981703	-0.3444981	0.096955064	-0.03233483	-0.79411215	0.057372246	0.13381412	-0.32817377	0.11603154	0.063051176	-0.78232707	0.094187216	0.042193391	-0.40689057	0.04552275	0.012098523	-0.86424542	0.036903506	0.083508027	-0.37859807	0.51436785	-0.063178481	-0.61340325	0.47827469	0.19549967	-0.38386036	0.50791273	0.061106109	-0.63830443	0.47369369	0.069205317	-0.58121016	0.88248594	-0.10530053	-0.62645282	0.88522494	0.26808717	-0.51546467	0.96736509	-0.036912016	-0.5253436	0.9702318	0.20076902	-0.6903812	1.0238502	0.064481099	-0.51909895	1.4193907	-0.087619067	-0.54458219	1.4290829	0.24147422	-0.60100256	1.4744993	0.075160263	-0.68052752	1.0899004	-0.13419346	-0.65449639	1.0623379	0.32633276	-0.58567403	0.84897966	-0.18135069	-0.38576191	0.9763334	0.28901435
136	0.54	-0.17893979	0.087272934	0.015885859	-0.64915175	0.039152726	0.096941659	-0.32907447	0.095391506	-0.031076815	-0.79378193	0.057432007	0.13386935	-0.31357026	0.11526502	0.064287002	-0.78201625	0.094180252	0.042007728	-0.39062647	0.042872831	0.013140287	-0.86418029	0.037127997	0.08326591	-0.3726795	0.51197531	-0.062886315	-0.61059407	0.4772363	0.19563395	-0.37846656	0.5053062	0.061506476	-0.6352709	0.47301155	0.06924128	-0.57469272	0.8805456	-0.10502319	-0.62086015	0.88431166	0.26799491	-0.50891741	0.9657812	-0.036733908	-0.51952602	0.96913316	0.20105198	-0.68435394	1.0221079	0.064142087	-0.51339994	1.4180228	-0.087532286	-0.53908452	1.4277082	0.24156542	-0.59529949	1.473108	0.075226182	-0.67537381	1.0890709	-0.13459685	-0.64843996	1.0606297	0.32641226	-0.58166868	0.84788128	-0.18203458	-0.37885612	0.97731625	0.2888091
137	0.544	-0.16391598	0.088813935	0.018012491	-0.64906169	0.03906183	0.096957509	-0.31398376	0.093959188	-0.029788262	-0.7935087	0.05739298	0.13382888	-0.29930875	0.11452572	0.065517767	-0.7816785	0.094172986	0.04181365	-0.37467832	0.040359733	0.014227394	-0.86411402	0.037367722	0.083004551	-0.36664129	0.50947572	-0.062600866	-0.60768266	0.47614458	0.19571307	-0.37286551	0.50258764	0.061982798	-0.6321241	0.47229536	0.069290465	-0.56810177	0.87853063	-0.104753	-0.61518961	0.88333874	0.26781069	-0.50233195	0.96413897	-0.036546067	-0.5136831	0.96796868	0.20133603	-0.67819804	1.020506	0.064333415	-0.50764533	1.4165769	-0.08747207	-0.53357913	1.4262531	0.24164873	-0.58962231	1.4716639	0.075302227	-0.6702672	1.088145	-0.13499927	-0.64239813	1.0588495	0.32647643	-0.57770101	0.84670297	-0.18274353	-0.3719993	0.9781724	0.28861463
138	0.548	-0.14930127	0.090464871	0.019984769	-0.64898266	0.038988451	0.097015091	-0.2992951	0.092638658	-0.028513471	-0.79335328	0.05740075	0.13372538	-0.28539413	0.11381786	0.066777641	-0.78134281	0.094167362	0.041618754	-0.35906106	0.037978157	0.01530304	-0.86404487	0.037628614	0.082725107	-0.36048792	0.50686418	-0.062317981	-0.60471246	0.47497921	0.19576517	-0.36707501	0.49979088	0.062562046	-0.62878928	0.47148561	0.069431776	-0.56151084	0.87644443	-0.10446337	-0.6094674	0.88232736	0.26757281	-0.49575294	0.96243904	-0.036328825	-0.50781128	0.96673717	0.20162182	-0.67186364	1.0188691	0.064678111	-0.50182666	1.415054	-0.087438383	-0.52807824	1.424722	0.24172295	-0.58396858	1.4701661	0.07538116	-0.66526383	1.0871269	-0.1353775	-0.63636598	1.0569971	0.32652121	-0.57372734	0.84544749	-0.18347314	-0.36518948	0.97890336	0.2884227
139	0.552	-0.13511743	0.092191074	0.021817961	-0.64892584	0.038928468	0.097094408	-0.28504733	0.091405121	-0.027282459	-0.7932952	0.0575051	0.13358206	-0.27182316	0.11312424	0.068066445	-0.78104028	0.094158792	0.041406997	-0.34377238	0.035700402	0.016266624	-0.8639714	0.037916492	0.082432855	-0.35430217	0.50415121	-0.062032792	-0.60168621	0.47372763	0.19581451	-0.36114085	0.49693417	0.063267099	-0.62529204	0.47057433	0.069653968	-0.55496898	0.87428701	-0.10412732	-0.60372179	0.88127808	0.26731295	-0.48917441	0.96068318	-0.036077329	-0.50190137	0.96544097	0.20190831	-0.6654433	1.0170512	0.064842466	-0.49600226	1.413459	-0.087412916	-0.52256673	1.4231177	0.2417939	-0.57831397	1.468605	0.075452461	-0.66030728	1.0860212	-0.13573842	-0.63033711	1.0550801	0.32654504	-0.56969709	0.84411858	-0.18421506	-0.35842611	0.97950975	0.28822893
140	0.556	-0.12138537	0.093943282	0.023529026	-0.64889516	0.038877616	0.097183752	-0.27123617	0.090233981	-0.026112508	-0.79334725	0.057752935	0.1333723	-0.25860182	0.11241982	0.069329186	-0.78078339	0.094137547	0.041148712	-0.32883364	0.033493897	0.017103111	-0.86389739	0.038233722	0.082134826	-0.34815923	0.50135969	-0.061740275	-0.59858984	0.47239386	0.19584786	-0.3551842	0.49401935	0.064054328	-0.62171621	0.46958327	0.069882221	-0.54843035	0.87206591	-0.10375813	-0.59797375	0.88014304	0.26705453	-0.48256317	0.95887622	-0.035804593	-0.49594481	0.96408611	0.20219231	-0.65910531	1.0150398	0.064699754	-0.49023069	1.4117999	-0.087384887	-0.51702314	1.4214426	0.24186572	-0.5726324	1.4669678	0.075507833	-0.65531646	1.0848332	-0.13609806	-0.62430504	1.0531052	0.32654797	-0.56558431	0.84271691	-0.18496521	-0.35171003	0.97998906	0.2880374
141	0.56	-0.10810018	0.095672664	0.025129958	-0.64887833	0.038826928	0.097269276	-0.2578365	0.08910963	-0.025016678	-0.79354754	0.058193201	0.13305044	-0.24573952	0.11170412	0.070489557	-0.78055535	0.094104447	0.040841507	-0.31428531	0.031344561	0.017863059	-0.8638305	0.038578366	0.081840023	-0.34207117	0.49852144	-0.06143194	-0.59541614	0.47099991	0.19585257	-0.34934795	0.4910319	0.064830434	-0.61812071	0.46853399	0.07005565	-0.54178968	0.86979356	-0.10340347	-0.59224105	0.87884476	0.26681705	-0.47590429	0.95702034	-0.035531708	-0.48994378	0.96267765	0.20247233	-0.65287196	1.0128984	0.064350779	-0.48451373	1.4100835	-0.087361412	-0.51143842	1.4197003	0.24193416	-0.56691929	1.465253	0.075543864	-0.6502501	1.0835671	-0.1364669	-0.61826663	1.0510715	0.32652985	-0.56138876	0.84123928	-0.18572446	-0.34503882	0.98033916	0.28785416
